<svg width="25" height="24" viewBox="0 0 25 24" fill="none" xmlns="http://www.w3.org/2000/svg">
<g clip-path="url(#clip0_510_346)">
<g filter="url(#filter0_d_510_346)">
<path d="M10.94 2.97624C11.9414 2.57563 13.0586 2.57563 14.06 2.97624L20.9684 5.74104C21.6524 6.01344 22.1 6.67584 22.1 7.41144V7.7549C22.1 9.56821 19.7133 10.7973 17.9 10.8002C17.0009 10.7988 16.1111 10.9818 15.2855 11.3378C15.017 11.4536 14.7571 11.5869 14.5075 11.7366C13.9492 12.0714 13.1 11.7083 13.1 11.0573C13.1 10.7733 13.2673 10.5159 13.5269 10.4005L18.1436 8.34864C18.2156 8.31665 18.2807 8.27079 18.3349 8.21368C18.3892 8.15656 18.4318 8.08931 18.4601 8.01577C18.4884 7.94222 18.5019 7.86383 18.4999 7.78505C18.4979 7.70627 18.4804 7.62866 18.4484 7.55664C18.4164 7.48463 18.3706 7.41961 18.3135 7.36532C18.2563 7.31103 18.1891 7.26852 18.1156 7.24021C18.042 7.21191 17.9636 7.19837 17.8848 7.20037C17.8061 7.20236 17.7284 7.21985 17.6564 7.25184L14.5306 8.64055C13.2378 9.21487 11.7623 9.21473 10.4697 8.64016L7.34363 7.25064C7.19818 7.18604 7.03303 7.18185 6.8845 7.23901C6.73597 7.29618 6.61623 7.41 6.55163 7.55544C6.48702 7.70089 6.48284 7.86604 6.54 8.01457C6.59716 8.1631 6.71098 8.28284 6.85643 8.34744L9.1245 9.35547C10.8123 10.1056 11.9 11.7794 11.9 13.6264C11.9 14.2984 11.7309 14.9558 11.5483 15.6025C11.3836 16.1859 11.2996 16.7908 11.3 17.4002C11.3 18.266 11.4668 19.0931 11.7699 19.8506C12.0334 20.5091 11.5985 21.2855 10.94 21.0218L4.03163 18.2594C3.69735 18.1258 3.41084 17.8949 3.20911 17.5967C3.00739 17.2985 2.89972 16.9467 2.90003 16.5866V7.41144C2.9002 7.05183 3.0081 6.70052 3.20979 6.40279C3.41148 6.10507 3.69773 5.87458 4.03163 5.74104L10.94 2.97624ZM20.9 21.8882C20.3106 22.2887 19.6477 22.5684 18.9496 22.7114C18.2515 22.8545 17.5319 22.8579 16.8325 22.7215C16.1331 22.5852 15.4675 22.3117 14.8743 21.917C14.281 21.5222 13.7718 21.0139 13.3759 20.4214C12.98 19.8289 12.7052 19.1639 12.5675 18.4647C12.4299 17.7655 12.4319 17.046 12.5736 16.3477C12.7153 15.6493 12.9938 14.9859 13.3931 14.3956C13.7924 13.8054 14.3045 13.3 14.9 12.9086C16.091 12.113 17.5492 11.823 18.9539 12.1025C20.3586 12.382 21.5948 13.2081 22.3904 14.399C23.1861 15.59 23.476 17.0482 23.1965 18.4529C22.917 19.8576 22.091 21.0926 20.9 21.8882ZM18.3248 14.5766C18.241 14.4926 18.1341 14.4353 18.0177 14.412C17.9013 14.3887 17.7805 14.4005 17.6708 14.4459C17.5611 14.4912 17.4673 14.5681 17.4013 14.6668C17.3353 14.7655 17.3001 14.8815 17.3 15.0002C17.3 15.9944 16.4941 16.8002 15.5 16.8002C15.3409 16.8002 15.1883 16.8635 15.0758 16.976C14.9632 17.0885 14.9 17.2411 14.9 17.4002C14.9 17.5594 14.9632 17.712 15.0758 17.8245C15.1883 17.937 15.3409 18.0002 15.5 18.0002C16.4941 18.0002 17.3 18.8061 17.3 19.8002C17.3 19.9594 17.3632 20.112 17.4758 20.2245C17.5883 20.337 17.7409 20.4002 17.9 20.4002C18.0592 20.4002 18.2118 20.337 18.3243 20.2245C18.4368 20.112 18.5 19.9594 18.5 19.8002C18.5 18.8061 19.3059 18.0002 20.3 18.0002C20.4592 18.0002 20.6118 17.937 20.7243 17.8245C20.8368 17.712 20.9 17.5594 20.9 17.4002C20.9 17.2411 20.8368 17.0885 20.7243 16.976C20.6118 16.8635 20.4592 16.8002 20.3 16.8002C19.3059 16.8002 18.5 15.9944 18.5 15.0002C18.5002 14.9214 18.4848 14.8433 18.4547 14.7704C18.4246 14.6975 18.3805 14.6313 18.3248 14.5754" fill="url(#paint0_linear_510_346)"/>
</g>
</g>
<defs>
<filter id="filter0_d_510_346" x="-0.0999756" y="-0.324219" width="26.4004" height="26.1455" filterUnits="userSpaceOnUse" color-interpolation-filters="sRGB">
<feFlood flood-opacity="0" result="BackgroundImageFix"/>
<feColorMatrix in="SourceAlpha" type="matrix" values="0 0 0 0 0 0 0 0 0 0 0 0 0 0 0 0 0 0 127 0" result="hardAlpha"/>
<feOffset/>
<feGaussianBlur stdDeviation="1.5"/>
<feComposite in2="hardAlpha" operator="out"/>
<feColorMatrix type="matrix" values="0 0 0 0 0.235294 0 0 0 0 1 0 0 0 0 0.639216 0 0 0 1 0"/>
<feBlend mode="normal" in2="BackgroundImageFix" result="effect1_dropShadow_510_346"/>
<feBlend mode="normal" in="SourceGraphic" in2="effect1_dropShadow_510_346" result="shape"/>
</filter>
<linearGradient id="paint0_linear_510_346" x1="4.78895" y1="13.2282" x2="24.3582" y2="13.2282" gradientUnits="userSpaceOnUse">
<stop stop-color="#44E7C1"/>
<stop offset="0.45" stop-color="#3CFFA3"/>
<stop offset="0.788796" stop-color="#A6F9AF"/>
<stop offset="1" stop-color="white"/>
</linearGradient>
<clipPath id="clip0_510_346">
<rect width="24" height="24" fill="white" transform="translate(0.5)"/>
</clipPath>
</defs>
</svg>
